<?xml version="1.0" encoding="UTF-8" standalone="no"?>
<svg
   xmlns:osb="http://www.openswatchbook.org/uri/2009/osb"
   xmlns:dc="http://purl.org/dc/elements/1.1/"
   xmlns:cc="http://creativecommons.org/ns#"
   xmlns:rdf="http://www.w3.org/1999/02/22-rdf-syntax-ns#"
   xmlns:svg="http://www.w3.org/2000/svg"
   xmlns="http://www.w3.org/2000/svg"
   version="1.1"
   id="svg2"
   viewBox="0 0 744.09448819 1052.3622047"
   height="297mm"
   width="210mm">
  <defs
     id="defs4">
    <linearGradient
       osb:paint="solid"
       id="linearGradient5754">
      <stop
         id="stop5756"
         offset="0"
         style="stop-color:#000000;stop-opacity:1;" />
    </linearGradient>
  </defs>
  <metadata
     id="metadata7">
    <rdf:RDF>
      <cc:Work
         rdf:about="">
        <dc:format>image/svg+xml</dc:format>
        <dc:type
           rdf:resource="http://purl.org/dc/dcmitype/StillImage" />
        <dc:title></dc:title>
      </cc:Work>
    </rdf:RDF>
  </metadata>
  <g
     id="layer1">
    <path
       id="path6106"
       d="m 311.42857,332.3622 c 0.49006,1.15851 -17.58143,7.30773 -46.22546,26.66366 -27.68207,18.70589 -68.2259,52.5548 -98.02416,106.53952 1e-5,10e-6 -2e-5,3e-5 -2e-5,3e-5 -27.27317,49.3918 -45.65951,117.56496 -34.33216,191.87584 6.59782,43.26736 23.35788,88.1773 52.36905,127.12335 26.56046,35.66388 63.58794,66.26232 107.73796,84.21281 36.73609,14.94363 78.37836,20.95354 119.31922,15.28084 5.43045,-0.75243 10.81866,-1.70685 16.15165,-2.86377 46.12306,-9.99288 87.57321,-35.06262 116.39981,-69.1398 26.30746,-31.04306 42.06275,-69.12497 47.50253,-106.93893 5.89118,-40.91061 -0.086,-81.59056 -13.52405,-116.90765 0,0 -3e-5,-4e-5 -3e-5,-4e-5 -12.50862,-32.87375 -31.72569,-61.25815 -53.63544,-83.98035 -25.1991,-26.1233 -53.86926,-44.79048 -82.15213,-56.76541 -35.32262,-14.96645 -69.96686,-19.61262 -98.21434,-19.61008 -31.96278,0.007 -57.57214,5.87866 -73.80272,10.60443 -16.62853,4.84165 -25.02308,8.78144 -25.28399,8.19127 -0.0943,-0.21325 7.95434,-4.94865 24.51263,-10.6251 16.16263,-5.54081 41.94113,-12.30909 74.51894,-13.03427 28.77828,-0.64401 64.28378,3.4709 100.81559,18.3423 29.24309,11.91297 58.98649,30.75778 85.21711,57.43102 22.82024,23.19651 42.90864,52.33183 56.13276,86.32582 -1e-5,0 2e-5,5e-5 2e-5,5e-5 14.19515,36.48917 20.63353,78.63474 14.71053,121.34127 -5.48308,39.49481 -21.78857,79.27226 -49.30347,111.95501 -30.22758,35.84312 -73.464,62.11628 -121.77695,72.58169 -5.58305,1.20789 -11.22013,2.20443 -16.89814,2.98997 -42.81194,5.92296 -86.15975,-0.36312 -124.42372,-16.02856 -45.95533,-18.82338 -84.23624,-50.64344 -111.59461,-87.73714 -29.86008,-40.49428 -46.87137,-86.87932 -53.32889,-131.47825 -11.09622,-76.60587 8.53354,-146.2481 37.13088,-196.37549 0,0 3e-5,-3e-5 3e-5,-3e-5 31.2626,-54.77972 73.21649,-88.29996 101.81713,-106.31307 29.61179,-18.64995 48.18883,-23.65055 48.18444,-23.66094 z"
       style="fill:#000000;fill-rule:evenodd;stroke:none;stroke-width:1px;stroke-linecap:butt;stroke-linejoin:miter;stroke-opacity:1;"/>
  </g>
</svg>
